<svg width="888" height="773" viewBox="0 0 888 773" fill="none" xmlns="http://www.w3.org/2000/svg">
<g id="undraw_happy_music_g6wc 1" clip-path="url(#clip0)">
<path id="ground" d="M887.772 763.25L252.263 772.831L0 728.121H393.817L887.772 763.25Z" fill="#E6E6E6"/>
<path id="sun" d="M731.822 203.32C787.968 203.32 833.482 157.806 833.482 101.66C833.482 45.5148 787.968 0 731.822 0C675.677 0 630.162 45.5148 630.162 101.66C630.162 157.806 675.677 203.32 731.822 203.32Z" fill="#FF6584"/>
<path id="Vector" d="M171.227 703.784C179.653 703.784 186.484 696.953 186.484 688.526C186.484 680.1 179.653 673.269 171.227 673.269C162.801 673.269 155.97 680.1 155.97 688.526C155.97 696.953 162.801 703.784 171.227 703.784Z" fill="#FF6A63"/>
<path id="Vector_2" d="M173.051 714.218H168.744V744.365H173.051V714.218Z" fill="#3F3D56"/>
<path id="Vector_3" d="M673.673 709.106C682.1 709.106 688.93 702.275 688.93 693.849C688.93 685.423 682.1 678.592 673.673 678.592C665.247 678.592 658.416 685.423 658.416 693.849C658.416 702.275 665.247 709.106 673.673 709.106Z" fill="#FF6A63"/>
<path id="Vector_4" d="M675.497 719.541H671.191V749.688H675.497V719.541Z" fill="#3F3D56"/>
<path id="Vector_5" d="M747.124 714.429C755.55 714.429 762.381 707.598 762.381 699.171C762.381 690.745 755.55 683.914 747.124 683.914C738.698 683.914 731.867 690.745 731.867 699.171C731.867 707.598 738.698 714.429 747.124 714.429Z" fill="#FF6A63"/>
<path id="Vector_6" d="M748.948 724.863H744.642V755.01H748.948V724.863Z" fill="#3F3D56"/>
<path id="Vector_7" d="M291.516 688.88C299.942 688.88 306.773 682.05 306.773 673.623C306.773 665.197 299.942 658.366 291.516 658.366C283.09 658.366 276.259 665.197 276.259 673.623C276.259 682.05 283.09 688.88 291.516 688.88Z" fill="#FF6A63"/>
<path id="Vector_8" d="M293.34 699.315H289.033V729.462H293.34V699.315Z" fill="#3F3D56"/>
<g id="leaves">
<path id="4" d="M179.84 733.435C179.84 733.435 181.327 702.276 211.812 705.898Z" fill="#3F3D56"/>
<path id="8" d="M682.287 738.757C682.287 738.757 683.774 707.599 714.258 711.22Z" fill="#3F3D56"/>
<path id="10" d="M755.738 744.08C755.738 744.08 757.225 712.921 787.709 716.543Z" fill="#3F3D56"/>
<path id="6" d="M300.129 718.532C300.129 718.532 301.616 687.373 332.101 690.995Z" fill="#3F3D56"/>
<path id="5" d="M283 714C283 714 281.279 682.651 246 686.295Z" fill="#3F3D56"/>
<path id="9" d="M745 749C745 749 743.279 717.651 708 721.295Z" fill="#3F3D56"/>
<path id="7" d="M667 738C667 738 665.279 706.651 630 710.295Z" fill="#3F3D56"/>
<path id="3" d="M166 737C166 737 164.279 705.651 129 709.295Z" fill="#3F3D56"/>
<path id="1" d="M61 727C61 727 59.2791 695.651 24 699.295Z" fill="#3F3D56"/>
<path id="2" d="M73.3898 723.854C73.3898 723.854 74.8768 692.696 105.361 696.317Z" fill="#3F3D56"/>
</g>
<path id="Vector_9" d="M64.7764 694.203C73.2027 694.203 80.0335 687.372 80.0335 678.946C80.0335 670.52 73.2027 663.689 64.7764 663.689C56.3501 663.689 49.5193 670.52 49.5193 678.946C49.5193 687.372 56.3501 694.203 64.7764 694.203Z" fill="#FF6A63"/>
<path id="Vector_10" d="M66.6005 704.638H62.2938V734.785H66.6005V704.638Z" fill="#3F3D56"/>
<g id="music">
<path id="Vector_11" d="M171.358 347.351L171.359 347.348L167.715 345.83L152.338 339.33L146.827 337L146.404 338.068L139 356.762L159.837 365.581L159.946 365.68L158.542 368.991C158.35 369.294 158.186 369.614 158.052 369.946C157.069 372.43 158.926 374.9 160.682 375.596C162.439 376.291 164.66 374.842 165.643 372.359C166.614 369.909 165.665 366.797 163.954 366.045L163.955 366.042L160.311 364.524L147.844 359.678L154.968 341.693L153.912 341.274L146.786 359.266L145.245 358.667L152.398 340.605L152.587 340.685L167.241 346.887L167.35 346.986L165.946 350.297C165.754 350.6 165.59 350.92 165.456 351.252C164.472 353.736 166.33 356.206 168.086 356.902C169.842 357.597 172.064 356.148 173.047 353.664C174.017 351.215 173.069 348.103 171.358 347.351Z" fill="#3F3D56"/>
<path id="Vector_12" d="M243.667 393.367C236.103 389.043 237.617 379.552 237.617 379.552C237.426 373.387 232.333 374.26 232.333 374.26L230.479 374.683C229.618 374.283 228.669 374.108 227.722 374.173L224.902 374.648C231.324 376.156 230.796 381.528 230.796 381.528L231.696 387.809L214.87 381.021L216.802 376.466C217.069 376.046 217.297 375.602 217.482 375.139C218.848 371.69 216.268 368.259 213.829 367.293C211.39 366.327 208.305 368.34 206.939 371.789C205.591 375.192 206.908 379.514 209.285 380.558L209.283 380.562L214.345 382.67L214.382 382.551L243.667 393.367ZM235.123 382.331L235.662 388.343C233.757 385.67 232.862 382.408 233.137 379.137C233.092 377.973 232.699 376.85 232.01 375.911C233.07 376.591 233.922 377.55 234.471 378.683C235.02 379.816 235.246 381.078 235.123 382.331V382.331Z" fill="#3F3D56"/>
<path id="Vector_13" d="M115.319 304.456L115.321 304.452L110.259 302.344L89.1049 294.12L94.4441 289.37C95.4886 287.978 97.0311 287.043 98.7488 286.762C100.467 286.48 102.227 286.874 103.661 287.86L102.004 285.398C102.004 285.398 98.8892 281.274 94.5291 285.637C94.5291 285.637 89.1342 293.59 80.6603 291.563L109.601 303.812L109.752 303.95L107.802 308.548C107.535 308.968 107.307 309.413 107.122 309.875C105.756 313.324 108.336 316.755 110.775 317.721C113.214 318.688 116.299 316.674 117.665 313.225C119.013 309.823 117.696 305.5 115.319 304.456Z" fill="#3F3D56"/>
<path id="3music" d="M192.766 277.541L190.816 282.14C190.549 282.56 190.321 283.004 190.135 283.467C188.769 286.916 191.349 290.347 193.788 291.313C196.228 292.279 199.313 290.266 200.679 286.817C202.026 283.414 200.709 279.092 198.332 278.048L198.334 278.044L193.273 275.936L175.958 269.205L185.851 244.225L184.385 243.644L174.488 268.633L172.347 267.801L182.282 242.714L182.544 242.825L202.897 251.439L203.049 251.577L201.099 256.175C200.832 256.596 200.604 257.04 200.418 257.503C199.052 260.952 201.632 264.383 204.072 265.349C206.511 266.315 209.596 264.302 210.962 260.853C212.309 257.45 210.992 253.128 208.616 252.083L208.618 252.079L203.556 249.972L182.871 241.227L182.87 241.227L182.199 240.943L174.544 237.707L163.674 265.155L192.614 277.404L192.766 277.541Z" fill="#3F3D56"/>
<path id="1music" d="M101.054 136.972L101.057 136.965L92.3439 133.336L55.9277 119.18L65.1188 111.003C65.1188 111.003 71.2325 102.52 80.985 108.404L78.133 104.164C78.133 104.164 72.7708 97.0656 65.2652 104.576C65.2652 104.576 55.9783 118.267 41.3909 114.777L91.2098 135.863L91.4713 136.1L88.1142 144.016C87.6547 144.74 87.2626 145.505 86.9429 146.3C84.5912 152.238 89.0328 158.145 93.2316 159.808C97.4305 161.471 102.741 158.005 105.093 152.067C107.412 146.21 105.145 138.77 101.054 136.972Z" fill="#3F3D56"/>
<path id="2music" d="M127.794 255.885C109.709 245.546 113.328 222.855 113.328 222.855C112.873 208.114 100.694 210.201 100.694 210.201L96.2614 211.213C94.2024 210.257 91.9352 209.838 89.6706 209.994L82.9281 211.128C98.2811 214.736 97.0197 227.579 97.0197 227.579L99.1706 242.596L58.9416 226.367L63.5605 215.476C64.1989 214.471 64.7435 213.409 65.1875 212.303C68.4538 204.056 62.2848 195.853 56.4529 193.543C50.621 191.233 43.2454 196.047 39.9791 204.294C36.7573 212.428 39.9059 222.763 45.5889 225.26L45.5841 225.27L57.6859 230.309L57.776 230.024L127.794 255.885ZM107.365 229.499L108.659 243.923C101.063 233.84 102.616 221.861 102.616 221.861C102.509 219.079 101.57 216.393 99.9217 214.15C108.647 219.371 107.365 229.499 107.365 229.499Z" fill="#3F3D56"/>
</g>
<g id="cartoon">
<path id="Vector_14" d="M442.277 669.71C534.082 669.71 608.505 595.287 608.505 503.482C608.505 411.677 534.082 337.254 442.277 337.254C350.472 337.254 276.049 411.677 276.049 503.482C276.049 595.287 350.472 669.71 442.277 669.71Z" fill="#3F3D56"/>
<path id="Vector_15" d="M336.771 511.445C340.9 506.502 346.063 502.527 351.897 499.799C357.73 497.07 364.091 495.656 370.531 495.656C376.971 495.656 383.332 497.07 389.165 499.799C394.999 502.527 400.162 506.502 404.291 511.445C411.355 504.701 416.237 495.996 418.309 486.452C420.381 476.908 419.547 466.962 415.914 457.897C412.282 448.831 406.017 441.061 397.929 435.588C389.84 430.115 380.297 427.19 370.531 427.19C360.765 427.19 351.222 430.115 343.133 435.588C335.045 441.061 328.78 448.831 325.148 457.897C321.515 466.962 320.681 476.908 322.753 486.452C324.825 495.996 329.707 504.701 336.771 511.445V511.445Z" fill="white"/>
<path id="Vector_16" d="M468.776 511.445C472.905 506.502 478.068 502.527 483.901 499.799C489.735 497.07 496.096 495.656 502.536 495.656C508.976 495.656 515.337 497.07 521.17 499.799C527.004 502.527 532.167 506.502 536.295 511.445C543.359 504.701 548.242 495.996 550.314 486.452C552.385 476.908 551.551 466.962 547.919 457.897C544.286 448.831 538.022 441.061 529.933 435.588C521.845 430.115 512.302 427.19 502.536 427.19C492.769 427.19 483.227 430.115 475.138 435.588C467.049 441.061 460.785 448.831 457.153 457.897C453.52 466.962 452.686 476.908 454.758 486.452C456.829 495.996 461.712 504.701 468.776 511.445Z" fill="white"/>
<path id="Vector_17" d="M354.707 481.632C363.996 481.632 371.525 474.102 371.525 464.814C371.525 455.526 363.996 447.996 354.707 447.996C345.419 447.996 337.889 455.526 337.889 464.814C337.889 474.102 345.419 481.632 354.707 481.632Z" fill="#3F3D56"/>
<path id="Vector_18" d="M486.707 481.632C495.996 481.632 503.525 474.102 503.525 464.814C503.525 455.526 495.996 447.996 486.707 447.996C477.419 447.996 469.889 455.526 469.889 464.814C469.889 474.102 477.419 481.632 486.707 481.632Z" fill="#3F3D56"/>
<path id="Vector_19" d="M322.495 564.595C333.295 564.595 342.051 555.84 342.051 545.039C342.051 534.238 333.295 525.483 322.495 525.483C311.694 525.483 302.939 534.238 302.939 545.039C302.939 555.84 311.694 564.595 322.495 564.595Z" fill="#FF6584"/>
<path id="Vector_20" d="M547.392 564.595C558.192 564.595 566.948 555.84 566.948 545.039C566.948 534.238 558.192 525.483 547.392 525.483C536.591 525.483 527.836 534.238 527.836 545.039C527.836 555.84 536.591 564.595 547.392 564.595Z" fill="#FF6584"/>
<g id="nose">
<path id="left" d="M426.667 513L412 576.558L436.445 552.113L426.667 513Z" fill="#FF6584"/>
</g>
<path id="Vector_21" d="M510.307 750.38L493.655 736.404L494.043 750.38H488.871L488.458 735.602L465.975 750.38H456.563L488.29 729.526L487.061 685.737L486.143 652.666L491.302 652.524L492.233 685.737L493.461 729.487L518.348 750.38H510.307Z" fill="#3F3D56"/>
<path id="Vector_22" d="M432.076 750.38L415.424 736.404L415.812 750.38H410.654L410.24 735.602L387.757 750.38H378.345L410.059 729.526L408.831 685.737L407.913 652.666L413.084 652.524L414.015 685.737L415.23 729.487L440.118 750.38H432.076Z" fill="#3F3D56"/>
<path id="Vector_23" d="M444.721 325.031C440.16 325.031 436.137 328.574 433.447 334.016C431.075 325.833 426.094 320.142 420.276 320.142C419.881 320.181 419.488 320.247 419.102 320.339C416.866 311.602 411.668 305.475 405.609 305.475C397.508 305.475 390.942 316.419 390.942 329.92C390.942 343.421 397.508 354.365 405.609 354.365C406.004 354.326 406.397 354.26 406.783 354.168C409.019 362.905 414.217 369.033 420.276 369.033C424.837 369.033 428.861 365.49 431.551 360.048C433.922 368.231 438.904 373.922 444.721 373.922C452.822 373.922 459.389 362.977 459.389 349.476C459.389 335.976 452.822 325.031 444.721 325.031Z" fill="#3F3D56"/>
<path id="Vector_24" d="M623.563 495.171H615.806C615.806 396.793 535.77 316.757 437.392 316.757C339.015 316.757 258.978 396.793 258.978 495.171H251.221C251.221 392.516 334.737 309 437.392 309C540.048 309 623.563 392.516 623.563 495.171Z" fill="#FF6A63"/>
<g id="headphones">
<path id="Vector_25" d="M285.891 564.665C279.47 564.665 273.113 563.401 267.181 560.944C261.249 558.487 255.86 554.886 251.32 550.346C246.78 545.806 243.179 540.416 240.722 534.484C238.265 528.553 237 522.195 237 515.775V491.329C237 478.363 242.151 465.927 251.32 456.759C260.488 447.59 272.924 442.439 285.891 442.439V442.439V564.665Z" fill="#FF6A63"/>
<path id="Vector_26" d="M597.944 442.439C604.364 442.439 610.722 443.703 616.653 446.16C622.585 448.617 627.975 452.219 632.515 456.758C637.055 461.298 640.656 466.688 643.113 472.62C645.57 478.551 646.834 484.909 646.834 491.329V515.775C646.834 522.195 645.57 528.553 643.113 534.484C640.656 540.416 637.055 545.806 632.515 550.346C627.975 554.886 622.585 558.487 616.653 560.944C610.722 563.401 604.364 564.665 597.944 564.665V564.665V442.439H597.944Z" fill="#FF6A63"/>
</g>
</g>
</g>
<defs>
<clipPath id="clip0">
<rect width="887.772" height="772.831" fill="white"/>
</clipPath>
</defs>
</svg>
